<svg width="14" height="16" viewBox="0 0 14 16" fill="none" xmlns="http://www.w3.org/2000/svg">
<path d="M7.61734 1.82349C7.61734 1.33618 7.2223 0.941133 6.73499 0.941133C6.24768 0.941133 5.85263 1.33618 5.85263 1.82349L7.61734 1.82349ZM6.11107 14.8003C6.45565 15.1449 7.01432 15.1449 7.3589 14.8003L12.9742 9.18509C13.3187 8.84051 13.3187 8.28183 12.9742 7.93725C12.6296 7.59267 12.0709 7.59267 11.7263 7.93725L6.73499 12.9286L1.74364 7.93725C1.39906 7.59267 0.840388 7.59267 0.495808 7.93725C0.151228 8.28183 0.151228 8.84051 0.495808 9.18509L6.11107 14.8003ZM6.73499 1.82349L5.85263 1.82349L5.85263 14.1764L6.73499 14.1764L7.61734 14.1764L7.61734 1.82349L6.73499 1.82349Z" fill="#004A00"/>
</svg>
