<svg width="34" height="29" viewBox="0 0 34 29" fill="none" xmlns="http://www.w3.org/2000/svg">
<path d="M14.5294 24.0132C13.3132 24.0132 12.3271 24.9786 12.3271 26.1712C12.3271 27.3622 13.3132 28.3271 14.5294 28.3271C15.7459 28.3271 16.7324 27.3622 16.7324 26.1712C16.7324 24.9786 15.7459 24.0132 14.5294 24.0132Z" fill="#004A00"/>
<path d="M14.5294 24.0132C13.3132 24.0132 12.3271 24.9786 12.3271 26.1712C12.3271 27.3622 13.3132 28.3271 14.5294 28.3271C15.7459 28.3271 16.7324 27.3622 16.7324 26.1712C16.7324 24.9786 15.7459 24.0132 14.5294 24.0132Z" fill="black" fill-opacity="0.2"/>
<path d="M26.8398 24.0132C25.6233 24.0132 24.6371 24.9786 24.6371 26.1712C24.6371 27.3622 25.6233 28.3271 26.8398 28.3271C28.056 28.3271 29.0425 27.3622 29.0425 26.1712C29.0425 24.9786 28.056 24.0132 26.8398 24.0132Z" fill="#004A00"/>
<path d="M26.8398 24.0132C25.6233 24.0132 24.6371 24.9786 24.6371 26.1712C24.6371 27.3622 25.6233 28.3271 26.8398 28.3271C28.056 28.3271 29.0425 27.3622 29.0425 26.1712C29.0425 24.9786 28.056 24.0132 26.8398 24.0132Z" fill="black" fill-opacity="0.2"/>
<path d="M10.6427 6.77092L9.39605 1.94051L0.936632 0.324951L0.894653 0.535912V3.70259L6.63329 4.79838L11.3929 23.2406H29.9836L33.8598 7.80504L10.6427 6.77092Z" fill="#004A00"/>
<path d="M10.6427 6.77092L9.39605 1.94051L0.936632 0.324951L0.894653 0.535912V3.70259L6.63329 4.79838L11.3929 23.2406H29.9836L33.8598 7.80504L10.6427 6.77092Z" fill="black" fill-opacity="0.2"/>
</svg>
